<svg width="22" height="30" viewBox="0 0 22 30" fill="none" xmlns="http://www.w3.org/2000/svg">
<g id="Component 1">
<path id="Vector" d="M11.9897 29.9937C10.0093 29.9874 8.03212 29.8308 6.07535 29.5251L5.8176 29.4829L2.87446 22.0595L2.40581 16.5059L1.46851 14.1627V4.95366L1.6091 4.81775C5.02557 1.50438 8.57327 -0.0609204 12.1491 0.164032C17.487 0.496775 20.9035 4.67715 21.0535 4.85055L21.1566 4.97709V14.1439L20.2193 16.4872L19.7131 22.1954L16.8122 29.4454L16.5872 29.5063C15.0813 29.8616 13.5366 30.0254 11.9897 29.9937ZM6.49245 28.63C7.67814 28.808 12.7021 29.4829 16.1186 28.6581L18.8086 21.9142L19.3054 16.2247L20.2146 13.9658V5.32389C19.6194 4.64903 16.5169 1.37315 12.0835 1.10602C8.83103 0.895129 5.57858 2.34326 2.40581 5.35201V13.9658L3.34311 16.3606L3.81177 21.9142L6.49245 28.63Z" fill="#ED1B24"/>
<path id="Vector_2" d="M20.9972 4.80368C20.7817 4.60685 15.6593 0 11.3102 0C6.96111 0 1.83874 4.60685 1.62316 4.80368L1.46851 4.94428V14.1439L2.40581 16.4872L2.87446 22.0407L5.80822 29.4267L6.04255 29.4829C7.77387 29.8492 9.54076 30.0205 11.3102 29.9937C13.0781 30.0344 14.8449 29.8772 16.5778 29.5251L16.8122 29.4688L19.7131 22.2188L20.2146 16.5059L21.1519 14.1627V4.94428L20.9972 4.80368ZM20.2146 13.9658L19.3101 16.2247L18.8086 21.9142L16.1233 28.6487C14.5356 28.9382 12.9239 29.0747 11.3102 29.0564C9.69665 29.0762 8.08492 28.9413 6.49714 28.6534L3.81177 21.9142L3.34311 16.3606L2.40581 13.9658V5.36138C3.28219 4.60685 7.71564 0.937304 11.3102 0.937304C14.9048 0.937304 19.3382 4.61154 20.2146 5.36606V13.9658Z" fill="#ED1B24"/>
<path id="Vector_3" d="M13.6534 29.5672C13.1847 25.0166 19.3194 15.8732 20.5613 14.1017L18.3399 11.4116V5.87685L15.364 4.00224L14.1923 8.9184H8.42791L7.25628 4.02098L4.28034 5.89559V11.4116L2.05893 14.0595C3.30086 15.8779 9.43551 25.0166 8.96686 29.5672L8.02956 29.4688C8.49821 24.8619 1.15912 14.4251 1.08414 14.322L0.87793 14.0267L3.34304 11.0742V5.36133L7.86553 2.54942L9.16838 8.0139H13.4472L14.7547 2.53067L19.2772 5.34258V11.0742L21.7423 14.0314L21.5361 14.3266C21.4611 14.4297 14.122 24.8666 14.5907 29.4735L13.6534 29.5672Z" fill="#ED1B24"/>
<path id="Vector_4" d="M15.1999 27.6457H12.4255L11.9568 26.7084H10.6634L10.1947 27.6457H7.42029L4.49121 25.6914L5.00673 24.9135L7.70148 26.7084H9.61358L10.0822 25.7711H12.538L13.0066 26.7084H14.9187L17.6135 24.9135L18.129 25.6914L15.1999 27.6457Z" fill="#ED1B24"/>
<path id="Vector_5" d="M20.1489 16.6371L19.3429 16.1685C19.0992 16.5809 17.0465 20.1145 17.3698 21.9517L16.2872 23.7607L15.6405 23.4326H6.97045L6.32839 23.7888L5.25987 21.9704C5.67697 20.2411 3.69457 16.8527 3.27747 16.1591L2.47607 16.6278C3.46493 18.2587 4.6928 20.9487 4.31788 21.8251L4.22415 22.0407L5.98159 25.0307L7.21415 24.3699H15.4156L16.6434 24.9838L18.3821 22.0876L18.3399 21.8814C17.9978 20.855 19.2772 18.1181 20.1489 16.6371Z" fill="#ED1B24"/>
<path id="Vector_6" d="M7.56093 15.9762L3.57739 14.2657L4.98335 12.138L5.28329 12.1895C5.34421 12.1895 11.4367 13.2346 17.3042 12.1895L17.651 12.1286L18.996 14.8233L15.0125 15.9622L13.0723 14.9968H9.54802L7.56093 15.9762ZM9.32307 14.0594H13.2925L15.1015 14.9639L17.6651 14.2328L17.1402 13.169C13.2556 13.7404 9.30842 13.7404 5.42388 13.169L4.95523 13.8532L7.56093 14.9452L9.32307 14.0594Z" fill="#ED1B24"/>
<path id="Vector_7" d="M13.6533 8.90438H8.9668V4.21786H13.6533V8.90438ZM9.9041 7.96708H12.716V5.15517H9.9041V7.96708Z" fill="#ED1B24"/>
<path id="Vector_8" d="M16.5478 2.54284L15.6094 3.95053L16.3893 4.47045L17.3277 3.06276L16.5478 2.54284Z" fill="#ED1B24"/>
<path id="Vector_9" d="M18.4192 3.48064L17.4807 4.88834L18.2606 5.40826L19.1991 4.00057L18.4192 3.48064Z" fill="#ED1B24"/>
<path id="Vector_10" d="M6.07603 2.54996L5.29614 3.06989L6.2346 4.47758L7.01449 3.95766L6.07603 2.54996Z" fill="#ED1B24"/>
<path id="Vector_11" d="M4.20176 3.48392L3.42188 4.00385L4.36033 5.41154L5.14022 4.89162L4.20176 3.48392Z" fill="#ED1B24"/>
</g>
</svg>
