<svg width="375" height="844" viewBox="0 0 375 844" fill="none" xmlns="http://www.w3.org/2000/svg">
<g clip-path="url(#clip0_5_609)">
<path d="M375 0H0V844H375V0Z" fill="#ED1B24"/>
<path d="M258.906 389.39H269.875V442.066H279.177V455.349H258.906V389.39Z" fill="white"/>
<path d="M280.136 392.893C280.136 395.224 278.271 397.123 275.959 397.123C273.646 397.123 271.781 395.235 271.781 392.893C271.781 390.55 273.646 388.662 275.959 388.662C278.271 388.662 280.136 390.55 280.136 392.893V392.893Z" stroke="white" stroke-width="1.67"/>
<path d="M274.333 395.076V390.635H276.271C276.656 390.635 276.958 390.677 277.167 390.751C277.365 390.835 277.531 390.972 277.656 391.173C277.781 391.373 277.844 391.595 277.844 391.838C277.844 392.154 277.74 392.418 277.542 392.629C277.344 392.85 277.031 392.977 276.615 393.04C276.771 393.114 276.886 393.188 276.969 393.262C277.136 393.42 277.302 393.62 277.448 393.853L278.208 395.055H277.479L276.906 394.137C276.74 393.874 276.594 393.663 276.49 393.526C276.386 393.388 276.281 393.283 276.198 393.23C276.115 393.177 276.021 393.135 275.938 393.114C275.875 393.104 275.761 393.093 275.615 393.093H274.948V395.066H274.365L274.333 395.076ZM274.917 392.597H276.167C276.427 392.597 276.636 392.565 276.792 392.513C276.938 392.46 277.052 392.365 277.136 392.249C277.208 392.122 277.25 391.996 277.25 391.848C277.25 391.637 277.177 391.468 277.021 391.331C276.875 391.194 276.636 391.131 276.313 391.131H274.927V392.597H274.917Z" fill="white"/>
<path d="M97.6461 455.106V389.39H112.438L117.688 416.936L123.646 389.39H137.959V448.586L147.261 389.39H161.813L170.875 448.586V389.633H190.198C190.198 389.633 196.875 390.835 200.219 400.267L198.792 389.39H210.479L215.969 423.456L221.698 389.633H254.615V401.955H244.834V415.48H254.136V429.248H245.073V441.813H254.615V455.106H233.386V391.806L222.407 455.106H209.292L202.375 413.064C202.375 413.064 201.188 424.659 194.74 429.976L203.094 455.106H191.646L183.532 433.12V455.106H160.396L159.209 448.829H150.386L148.479 455.106H126.532V430.946L120.802 455.106H114.844L109.594 431.189V454.863L97.667 455.106H97.6461ZM158 436.021L154.657 415.965L151.792 436.021H157.99H158ZM183.282 420.797C191.157 420.312 190.438 410.406 190.438 410.406C189.25 400.742 183.282 401.227 183.282 401.227V420.797Z" fill="white"/>
</g>
<defs>
<clipPath id="clip0_5_609">
<rect width="375" height="844" fill="white"/>
</clipPath>
</defs>
</svg>
