<svg width="72" height="26" viewBox="0 0 72 26" fill="none" xmlns="http://www.w3.org/2000/svg">
<g id="App Bar Logo" clip-path="url(#clip0_61_148)">
<path id="Vector" d="M62.5052 4.73992V0.00353685H49.5355L47.4026 15.8268L45.2919 0.00361369H40.6148L41.1388 4.22578C40.5985 3.14416 38.6837 0.00361369 34.4696 0.00361369C34.4418 0.00176844 29.7861 0.00361369 29.7861 0.00361369L29.7682 23.0673L26.3591 0.00361369L20.2337 0L16.707 23.8971L16.7088 0.00346H10.8464L8.73295 13.4265L6.67437 0.00361369H0.810059V25.9837H5.42809V13.4614L7.52874 25.9834H9.98385L12.055 13.4614V25.9834H20.9578L21.498 21.9857H25.0823L25.6207 25.9834L34.3611 25.9889H34.3683V25.9834H34.3737H34.3792V17.5502L35.4507 17.3916L37.669 25.9889H37.6744H42.1846H42.1898L42.188 25.9834H42.1961H42.2015L39.2905 15.907C40.7657 14.7982 42.4314 11.9822 41.9881 9.28839V9.28662C41.9934 9.32306 44.7358 26 44.7358 26L50.1126 25.9834L53.7866 2.43458V25.9835H62.5054V21.3109H58.3668V15.3526H62.5054V10.6089H58.3668V4.73992H62.5052ZM22.042 17.8659L23.3099 6.75893L24.6264 17.8659H22.042ZM35.4656 12.7373C35.1103 12.9125 34.7397 13 34.3789 13V4.64327C34.3852 4.64327 34.3925 4.64158 34.4014 4.64158C34.7631 4.63973 37.4595 4.75276 37.4595 8.77602C37.4595 10.8806 36.5425 12.2067 35.4656 12.7373ZM71.8101 21.3073V25.9798H63.3047V0H67.8842V21.3073H71.8101Z" fill="#ED1B24"/>
</g>
<defs>
<clipPath id="clip0_61_148">
<rect width="71" height="26" fill="white" transform="translate(0.810059)"/>
</clipPath>
</defs>
</svg>
