<svg width="25" height="24" viewBox="0 0 25 24" fill="none" xmlns="http://www.w3.org/2000/svg">
<g id="icon-filter">
<path id="Shape" fill-rule="evenodd" clip-rule="evenodd" d="M1.71301 2.57912C1.87687 2.22596 2.2308 2 2.62013 2H22.6201C23.0095 2 23.3634 2.22596 23.5272 2.57912C23.6911 2.93229 23.6351 3.34845 23.3837 3.64573L15.6201 12.8261V21C15.6201 21.3466 15.4407 21.6684 15.1459 21.8507C14.851 22.0329 14.4829 22.0494 14.1729 21.8944L10.1729 19.8944C9.83413 19.725 9.62013 19.3788 9.62013 19V12.8261L1.85656 3.64573C1.60516 3.34845 1.54915 2.93229 1.71301 2.57912ZM4.77543 4L11.3837 11.8143C11.5364 11.9948 11.6201 12.2236 11.6201 12.46V18.382L13.6201 19.382V12.46C13.6201 12.2236 13.7039 11.9948 13.8566 11.8143L20.4648 4H4.77543Z" fill="#504A4A"/>
</g>
</svg>
