<svg width="25" height="24" viewBox="0 0 25 24" fill="none" xmlns="http://www.w3.org/2000/svg">
<path d="M22.8101 22L16.1434 15.3333L22.8101 22ZM18.3656 9.77778C18.3656 10.7992 18.1644 11.8106 17.7736 12.7542C17.3827 13.6978 16.8098 14.5553 16.0876 15.2775C15.3653 15.9997 14.5079 16.5726 13.5643 16.9635C12.6206 17.3544 11.6092 17.5556 10.5878 17.5556C9.56644 17.5556 8.55505 17.3544 7.61141 16.9635C6.66777 16.5726 5.81035 15.9997 5.08812 15.2775C4.36588 14.5553 3.79298 13.6978 3.40211 12.7542C3.01124 11.8106 2.81006 10.7992 2.81006 9.77778C2.81006 7.71498 3.6295 5.73667 5.08812 4.27806C6.54673 2.81944 8.52504 2 10.5878 2C12.6506 2 14.6289 2.81944 16.0876 4.27806C17.5462 5.73667 18.3656 7.71498 18.3656 9.77778Z" stroke="#504A4A" stroke-width="2" stroke-linecap="round" stroke-linejoin="round"/>
</svg>
