<svg width="31" height="30" viewBox="0 0 31 30" fill="none" xmlns="http://www.w3.org/2000/svg">
<g id="Group">
<path id="Vector" d="M28.6981 18.0046L16.6981 16.0046C16.6021 15.9893 16.5028 16.0156 16.4279 16.0791C16.353 16.1423 16.3101 16.2354 16.3101 16.3334V23C16.3101 23.0996 16.3547 23.194 16.4315 23.2572C16.4917 23.307 16.5666 23.3334 16.6434 23.3334C16.6646 23.3334 16.686 23.3314 16.7069 23.3272L28.7069 20.9938C28.8638 20.9636 28.9767 20.8262 28.9767 20.6667V18.3334C28.9767 18.1703 28.8589 18.0313 28.6981 18.0046ZM28.3101 20.3919L16.9767 22.5957V16.7269L28.3101 18.6156V20.3919Z" fill="#504A4A"/>
<path id="Vector_2" d="M7.30998 18H1.97664C1.7924 18 1.64331 18.1491 1.64331 18.3333V22.6667C1.64331 22.8509 1.7924 23 1.97664 23H7.30998C7.49422 23 7.64331 22.8509 7.64331 22.6667V18.3333C7.64331 18.1491 7.49422 18 7.30998 18ZM6.97664 22.3333H2.30998V18.6667H6.97664V22.3333Z" fill="#504A4A"/>
<path id="Vector_3" d="M7.30998 23.6667H1.97664C1.7924 23.6667 1.64331 23.8158 1.64331 24V28.3334C1.64331 28.5176 1.7924 28.6667 1.97664 28.6667H7.30998C7.49422 28.6667 7.64331 28.5176 7.64331 28.3334V24C7.64331 23.8158 7.49422 23.6667 7.30998 23.6667ZM6.97664 28H2.30998V24.3334H6.97664V28Z" fill="#504A4A"/>
<path id="Vector_4" d="M13.9768 18H8.31014C8.1259 18 7.97681 18.1491 7.97681 18.3333V28.3333C7.97681 28.5176 8.1259 28.6667 8.31014 28.6667H13.9768C14.1611 28.6667 14.3101 28.5176 14.3101 28.3333V18.3333C14.3101 18.1491 14.1611 18 13.9768 18ZM13.6435 28H8.64347V18.6667H13.6435V28Z" fill="#504A4A"/>
<path id="Vector_5" d="M28.582 21.6725L23.2487 22.6725C23.1207 22.6963 23.0185 22.7926 22.9869 22.9193L21.6536 28.2526C21.6285 28.3522 21.651 28.4577 21.7141 28.5384C21.7773 28.6195 21.8743 28.6667 21.9768 28.6667H28.6435C28.8278 28.6667 28.9768 28.5176 28.9768 28.3333V22C28.9768 21.9007 28.9326 21.807 28.8564 21.7435C28.7799 21.6797 28.679 21.6533 28.582 21.6725ZM28.3102 28H22.4039L23.5817 23.2881L28.3102 22.4017V28Z" fill="#504A4A"/>
<path id="Vector_6" d="M22.5558 23.1081C22.4787 23.0241 22.3638 22.985 22.2521 23.0052L16.5854 24.0052C16.4263 24.0332 16.3101 24.1716 16.3101 24.3334V28.3334C16.3101 28.5176 16.4591 28.6667 16.6434 28.6667H20.9767C21.1278 28.6667 21.2599 28.5651 21.2987 28.4193L22.632 23.4193C22.6616 23.3093 22.6326 23.1918 22.5558 23.1081ZM20.7205 28H16.9767V24.613L21.8534 23.7523L20.7205 28Z" fill="#504A4A"/>
<path id="Vector_7" d="M29.9767 8H27.9639C27.9712 7.8882 27.9767 7.77669 27.9767 7.66667C27.9767 7.40788 27.9565 7.14323 27.9162 6.87728L29.522 5.77865C29.644 5.69531 29.6965 5.54134 29.6509 5.40072C29.6056 5.26042 29.48 5.17253 29.3247 5.17025L27.3797 5.22396C27.1356 4.75065 26.8244 4.31999 26.4513 3.93945L27.1014 2.11556C27.1509 1.97624 27.103 1.82096 26.9832 1.73405C26.8641 1.64714 26.7013 1.64941 26.5841 1.73926L25.0571 2.91276C24.5767 2.66862 24.0646 2.50033 23.5295 2.41113L22.9868 0.572266C22.9452 0.430664 22.8149 0.333333 22.6672 0.333333C22.5194 0.333333 22.3892 0.430664 22.3475 0.572266L21.8078 2.40137C21.2658 2.48633 20.7456 2.65267 20.257 2.89779L18.7502 1.73926C18.633 1.64941 18.4702 1.64714 18.3511 1.73405C18.2316 1.82096 18.1834 1.97624 18.2329 2.11556L18.8703 3.90495C18.4819 4.29362 18.1593 4.73568 17.908 5.22266L16.0096 5.17025C15.8602 5.1709 15.729 5.26042 15.6834 5.40072C15.6379 5.54134 15.6903 5.69531 15.8123 5.77865L17.3742 6.84701C17.3315 7.12077 17.3101 7.39551 17.3101 7.66667C17.3101 7.7772 17.316 7.88857 17.3232 8H12.3979C13.591 7.13969 14.3101 5.94664 14.3101 4.66667C14.3101 2.09342 11.4689 0 7.97673 0C4.48454 0 1.64339 2.09342 1.64339 4.66667C1.64339 5.97298 2.38005 7.15214 3.5579 8H0.643392C0.459147 8 0.310059 8.14909 0.310059 8.33333V29.6667C0.310059 29.8509 0.459147 30 0.643392 30H29.9767C30.161 30 30.3101 29.8509 30.3101 29.6667V8.33333C30.3101 8.14909 30.161 8 29.9767 8ZM29.6434 9.71102C29.6197 9.64935 29.5793 9.59385 29.522 9.55469L28.224 8.66667H29.6434V9.71102ZM16.9767 10.1364L17.908 10.1107C18.1593 10.5977 18.4819 11.0397 18.8703 11.4284L18.2329 13.2178C18.1834 13.3571 18.2316 13.5124 18.3511 13.5993C18.4702 13.6862 18.633 13.6839 18.7502 13.5941L20.257 12.4355C20.7456 12.6807 21.2658 12.847 21.8078 12.932L22.3475 14.7611C22.3892 14.9027 22.5194 15 22.6672 15C22.8149 15 22.9452 14.9027 22.9868 14.7611L23.5295 12.9222C24.0646 12.833 24.5767 12.6647 25.0571 12.4206L26.5841 13.5941C26.7013 13.6839 26.8641 13.6862 26.9832 13.5993C27.103 13.5124 27.1509 13.3571 27.1014 13.2178L26.4513 11.3939C26.8244 11.0133 27.1356 10.5827 27.3797 10.1094L28.3101 10.1351V16.6064L16.9767 14.7178V10.1364ZM17.1235 5.86816L18.1037 5.89518C18.2443 5.89746 18.3589 5.82292 18.4149 5.70247C18.6727 5.14844 19.0321 4.65658 19.4826 4.24089C19.5809 4.15007 19.6154 4.00977 19.5708 3.88379L19.2407 2.95703L20.0203 3.55664C20.1258 3.63737 20.269 3.64844 20.3849 3.58398C20.9175 3.28874 21.4963 3.10352 22.1047 3.03353C22.2375 3.01823 22.3485 2.92513 22.3862 2.79688L22.6672 1.84473L22.9504 2.80436C22.9878 2.93132 23.0972 3.02409 23.2287 3.04069C23.8309 3.11621 24.4022 3.30404 24.9263 3.59896C25.0428 3.66439 25.187 3.65397 25.2928 3.57259L26.0936 2.95703L25.7518 3.91634C25.7075 4.04134 25.741 4.18034 25.8374 4.27116C26.2723 4.68034 26.6206 5.16211 26.8722 5.70378C26.9285 5.82454 27.0461 5.89095 27.1838 5.89648L28.2108 5.86816L27.3634 6.44792C27.2537 6.52279 27.1994 6.6556 27.2241 6.78581C27.2811 7.08301 27.3101 7.37923 27.3101 7.66667C27.3101 7.9541 27.2811 8.25033 27.2241 8.54753C27.1994 8.67773 27.2537 8.81055 27.3634 8.88542L28.2108 9.46517L27.1838 9.43685C27.0464 9.4388 26.9285 9.50912 26.8722 9.62956C26.6206 10.1712 26.2723 10.653 25.8374 11.0622C25.741 11.153 25.7075 11.292 25.7518 11.417L26.0936 12.3763L25.2928 11.7607C25.187 11.6797 25.0428 11.6689 24.9263 11.7344C24.4022 12.0293 23.8309 12.2171 23.2287 12.2926C23.0972 12.3092 22.9878 12.402 22.9504 12.529L22.6672 13.4886L22.3862 12.5365C22.3485 12.4082 22.2375 12.3151 22.1047 12.2998C21.4963 12.2298 20.9175 12.0446 20.3849 11.7493C20.3345 11.7214 20.2788 11.7077 20.2235 11.7077C20.1515 11.7077 20.0799 11.7311 20.0203 11.7767L19.2407 12.3763L19.5708 11.4495C19.6154 11.3236 19.5809 11.1833 19.4826 11.0924C19.0321 10.6768 18.6727 10.1849 18.4149 9.63086C18.3589 9.51042 18.2437 9.43587 18.1037 9.43815L17.1235 9.46517L17.9279 8.91504C18.0379 8.83984 18.0926 8.70638 18.0669 8.57552C18.007 8.27246 17.9767 7.9668 17.9767 7.66667C17.9767 7.36654 18.007 7.06087 18.0669 6.75781C18.0926 6.62695 18.0379 6.49349 17.9279 6.41829L17.1235 5.86816ZM2.31006 4.66667C2.31006 2.46094 4.85205 0.666667 7.97673 0.666667C11.1014 0.666667 13.6434 2.46094 13.6434 4.66667C13.6434 6.32259 12.1587 7.82715 9.94906 8.41081C9.86247 8.43359 9.7889 8.49023 9.74463 8.56771L8.31006 11.0781V9C8.31006 8.81576 8.16097 8.66667 7.97673 8.66667C4.85205 8.66667 2.31006 6.8724 2.31006 4.66667ZM7.89111 12.6556C7.91976 12.6631 7.94841 12.6667 7.97673 12.6667C8.09424 12.6667 8.20589 12.6045 8.26611 12.4987L9.69401 10H13.6434V16.6667H2.31006V10H7.64339V12.3333C7.64339 12.4844 7.74495 12.6169 7.89111 12.6556ZM0.976725 8.66667H4.72249C5.58496 9.04907 6.5791 9.28593 7.64339 9.32682V9.33333H1.97673C1.79338 9.33333 1.64339 9.48334 1.64339 9.66667V17C1.64339 17.1833 1.79338 17.3333 1.97673 17.3333H13.9767C14.1601 17.3333 14.3101 17.1833 14.3101 17V9.66667C14.3101 9.48334 14.1601 9.33333 13.9767 9.33333H10.075L10.255 9.01823C10.5963 8.92151 10.9195 8.80221 11.2267 8.66667H14.9767V29.3333H0.976725V8.66667ZM15.6434 29.3333V8.66667H17.1106L15.8123 9.55469C15.6903 9.63802 15.6379 9.79199 15.6834 9.93262C15.729 10.0732 15.8618 10.1589 16.0096 10.1631L16.3101 10.1548V15C16.3101 15.1631 16.4279 15.3021 16.5887 15.3288L28.5887 17.3288C28.6069 17.3317 28.6252 17.3333 28.6434 17.3333C28.7218 17.3333 28.7983 17.3057 28.8589 17.2542C28.9338 17.1911 28.9767 17.098 28.9767 17V10.1535L29.3247 10.1631C29.4724 10.1575 29.5936 10.0782 29.6434 9.94718V29.3333H15.6434Z" fill="#504A4A"/>
</g>
</svg>
